<?xml version="1.0" encoding="utf-8"?>
<!-- Generator: Adobe Illustrator 16.0.0, SVG Export Plug-In . SVG Version: 6.00 Build 0)  -->
<!DOCTYPE svg PUBLIC "-//W3C//DTD SVG 1.1//EN" "http://www.w3.org/Graphics/SVG/1.1/DTD/svg11.dtd">
<svg version="1.1" id="Layer_1" xmlns="http://www.w3.org/2000/svg" xmlns:xlink="http://www.w3.org/1999/xlink" x="0px" y="0px"
	 width="40px" height="40px" viewBox="0 0 40 40" enable-background="new 0 0 40 40" xml:space="preserve">
<circle fill="none" stroke="#B3B3B3" stroke-miterlimit="10" cx="19.976" cy="19.589" r="17.817"/>
<path fill="#F7F7F7" d="M19.961,16.32c-0.133,0.188-0.194,0.307-0.282,0.396c-2.7,2.705-5.397,5.41-8.11,8.102
	c-0.2,0.198-0.487,0.357-0.762,0.423c-0.417,0.101-0.818-0.141-1.015-0.517c-0.208-0.4-0.167-0.787,0.104-1.147
	c0.063-0.084,0.145-0.156,0.221-0.231c2.989-2.992,5.979-5.982,8.969-8.973c0.615-0.616,1.165-0.618,1.773-0.009
	c3.005,3.005,6.009,6.013,9.017,9.014c0.34,0.341,0.514,0.714,0.354,1.188c-0.23,0.675-1.041,0.919-1.605,0.486
	c-0.104-0.078-0.191-0.175-0.283-0.266c-2.68-2.68-5.357-5.358-8.033-8.04C20.209,16.649,20.131,16.532,19.961,16.32"/>
</svg>
